<?xml version="1.0" standalone="no"?>
<!DOCTYPE svg PUBLIC "-//W3C//DTD SVG 20010904//EN"
 "http://www.w3.org/TR/2001/REC-SVG-20010904/DTD/svg10.dtd">
<svg version="1.0" xmlns="http://www.w3.org/2000/svg"
 width="512.000000pt" height="512.000000pt" viewBox="0 0 512.000000 512.000000"
 preserveAspectRatio="xMidYMid meet">
<metadata>
Created by potrace 1.14, written by Peter Selinger 2001-2017
</metadata>
<g transform="translate(0.000000,512.000000) scale(0.100000,-0.100000)"
fill="#000000" stroke="none">
<path d="M2379 5116 c-2 -2 -38 -6 -79 -10 -64 -6 -213 -30 -315 -51 -16 -3
-69 -17 -116 -30 -593 -167 -1107 -542 -1447 -1057 -39 -61 -76 -105 -94 -114
-35 -18 -88 -64 -88 -75 0 -5 11 -14 24 -21 l24 -13 -44 -94 c-121 -256 -201
-543 -232 -831 -9 -85 -8 -459 1 -530 4 -30 10 -76 13 -102 4 -29 2 -53 -4
-61 -9 -10 -6 -17 8 -30 11 -9 20 -25 20 -34 0 -33 61 -257 97 -358 234 -656
743 -1209 1363 -1479 47 -21 94 -41 105 -46 56 -25 262 -90 348 -110 120 -27
111 -25 172 -34 28 -4 61 -10 75 -12 79 -13 176 -19 345 -19 266 0 418 18 638
75 833 215 1500 826 1782 1631 20 57 38 111 41 119 26 103 53 213 59 245 4 22
9 49 11 60 21 119 29 241 28 455 -1 295 -42 543 -129 789 l-15 44 41 53 c43
55 78 137 74 167 -5 28 -34 67 -50 67 -8 0 -15 4 -15 8 0 5 -6 9 -12 10 -20 2
-89 12 -128 17 -53 8 -55 9 -95 82 -99 177 -257 383 -415 542 -392 392 -899
646 -1450 726 -19 3 -53 7 -75 11 -46 6 -460 16 -466 10z m301 -300 c74 -3
144 -8 155 -10 11 -2 43 -7 70 -10 98 -13 281 -59 395 -98 468 -163 872 -477
1145 -888 30 -46 53 -85 52 -87 -2 -1 -12 -4 -23 -6 -60 -12 -415 -183 -704
-340 -150 -81 -477 -253 -571 -299 -57 -28 -93 -34 -143 -23 -45 9 -48 14 -25
38 43 46 53 91 36 164 -16 64 -79 116 -135 112 -59 -5 -201 -68 -294 -132 -41
-28 -67 -39 -95 -39 -21 -1 -124 26 -230 60 -249 80 -374 121 -393 129 -20 9
-20 9 -62 17 -21 5 -38 11 -38 15 0 4 -6 8 -12 8 -13 0 -315 97 -353 114 -18
7 -606 206 -630 212 -40 11 -122 41 -131 48 -6 5 -15 5 -19 1 -15 -12 26 50
74 113 282 375 660 645 1111 796 63 21 126 40 140 43 14 3 36 7 50 11 35 7
177 33 220 39 19 3 82 8 140 12 58 4 107 8 108 10 2 1 9 1 15 -1 7 -2 73 -6
147 -9z m-2054 -1247 c248 -131 243 -127 238 -159 -4 -25 -1 -31 28 -44 18 -9
53 -27 78 -41 25 -14 57 -33 72 -41 24 -13 26 -17 17 -40 -12 -33 -8 -37 24
-25 22 9 41 1 147 -60 66 -38 125 -69 130 -69 6 0 10 -3 10 -7 0 -5 25 -21 56
-37 37 -20 61 -40 71 -61 12 -26 21 -31 53 -32 22 -1 56 -13 80 -28 64 -40 85
-47 180 -60 64 -9 92 -21 139 -64 19 -17 41 -31 49 -31 10 0 6 -9 -11 -26
l-27 -26 28 -21 c15 -11 31 -24 35 -28 5 -4 4 -16 -2 -27 -12 -23 -7 -29 33
-36 28 -5 116 -56 116 -67 0 -11 -23 -25 -165 -99 -135 -70 -189 -99 -397
-209 -54 -28 -112 -52 -130 -53 -41 -2 -98 11 -98 23 0 5 -4 9 -10 9 -5 0
-103 46 -217 101 -114 56 -224 104 -244 106 -23 4 -53 -2 -87 -17 -54 -23
-112 -79 -108 -102 7 -34 20 -74 32 -97 8 -14 14 -34 14 -43 0 -9 5 -20 10
-23 6 -3 10 -15 10 -26 0 -11 7 -34 16 -51 l16 -31 -33 7 c-19 4 -41 9 -50 11
-8 2 -39 10 -68 19 -29 8 -56 15 -59 14 -4 -1 -23 3 -42 10 -19 6 -46 14 -60
16 -14 3 -50 13 -80 22 -30 8 -62 17 -70 18 -36 7 -64 361 -45 591 13 161 35
287 80 445 49 170 151 420 173 420 5 0 36 -14 68 -31z m4127 -451 c10 -40 19
-84 22 -98 3 -14 7 -36 10 -50 10 -53 15 -87 21 -145 3 -33 7 -71 10 -85 6
-31 6 -315 0 -355 -2 -16 -7 -64 -11 -105 -4 -41 -8 -77 -10 -80 -2 -3 -6 -23
-9 -45 -53 -336 -234 -728 -471 -1022 -78 -97 -241 -260 -340 -338 -159 -127
-379 -257 -550 -325 -44 -17 -89 -36 -100 -40 -45 -19 -209 -66 -265 -77 -13
-2 -53 -10 -90 -18 -36 -7 -96 -17 -135 -20 -38 -4 -78 -9 -90 -11 -31 -6
-302 -5 -380 1 -766 66 -1462 532 -1813 1215 -61 118 -147 328 -139 337 5 4
153 -78 282 -156 33 -20 72 -43 87 -50 l28 -14 -27 -46 c-15 -25 -32 -56 -38
-68 -5 -13 -14 -23 -20 -23 -5 0 2 -8 15 -17 20 -14 45 -17 129 -16 l105 1 40
-43 c23 -23 61 -66 86 -95 25 -30 50 -58 55 -64 6 -6 39 -45 75 -86 133 -153
149 -163 221 -140 67 23 79 56 64 195 -3 39 -8 93 -10 120 -2 28 -6 91 -10
141 -7 87 -6 93 16 113 13 11 29 21 36 21 20 0 21 0 58 16 19 8 35 11 35 8 0
-4 6 -2 13 4 6 5 28 13 47 17 59 13 300 95 367 125 35 16 66 29 68 30 15 2 45
16 78 37 20 13 37 20 37 16 0 -5 4 -3 8 2 22 31 215 109 322 130 8 2 16 4 18
4 5 2 14 4 68 17 67 15 68 15 189 -79 114 -87 115 -88 103 -107 -18 -28 -5
-34 75 -37 40 -1 77 -2 83 -2 15 -1 32 -45 39 -106 3 -27 17 -69 31 -92 13
-23 25 -51 27 -62 2 -12 14 -29 28 -38 35 -24 60 -56 99 -121 62 -106 85 -135
145 -185 53 -44 105 -105 105 -122 0 -3 8 -17 17 -32 10 -14 18 -32 19 -40 2
-8 10 -23 18 -32 9 -10 16 -22 16 -28 0 -5 16 -26 35 -46 39 -40 60 -42 135
-8 25 11 61 23 79 26 44 8 53 14 44 28 -4 6 -8 18 -9 27 -1 8 -5 46 -9 85 -4
38 -8 77 -10 86 -2 9 -6 40 -10 70 -3 30 -8 65 -10 79 -2 14 -7 50 -10 80 -3
30 -8 66 -10 80 -2 14 -7 50 -10 80 -3 30 -8 66 -10 80 -6 39 -17 121 -20 160
-2 19 -6 47 -8 61 -7 44 9 66 60 84 148 53 297 142 332 198 26 43 29 73 11
118 -35 86 -71 108 -180 107 -80 -1 -81 -1 -118 -39 -41 -43 -148 -103 -157
-88 -4 5 -8 18 -11 29 -2 11 -6 30 -9 43 -19 81 -28 162 -28 234 0 127 31 154
418 347 238 119 393 204 492 269 37 25 73 46 79 46 6 1 18 -32 27 -71z"/>
</g>
</svg>
